<svg fill="none" height="176" viewBox="0 0 176 176" width="176" xmlns="http://www.w3.org/2000/svg" xmlns:xlink="http://www.w3.org/1999/xlink"><clipPath id="a"><path d="m20 55h136v66.9538h-136z"/></clipPath><g clip-path="url(#a)" fill="#0054ff"><path d="m36.7385 88.4769c0-9.2323 7.5113-16.7384 16.7384-16.7384s16.7385 7.5061 16.7385 16.7384-7.5114 16.7381-16.7385 16.7381-16.7384-7.5058-16.7384-16.7381zm-16.7385 0c0 18.4911 14.9862 33.4771 33.4769 33.4771 18.4908 0 33.4769-14.986 33.4769-33.4771 0-18.4907-14.9861-33.4769-33.4769-33.4769-18.4907 0-33.4769 14.9862-33.4769 33.4769z"/><path d="m105.784 71.7385h-16.7381v33.4765h16.7381z"/><path d="m156 71.7385h-16.738v33.4765h16.738z"/><path d="m139.261 105.215h-33.477v16.739h33.477z"/><path d="m139.261 55h-33.477v16.7385h33.477z"/></g></svg>